<svg width="543" height="543" viewBox="0 0 543 543" fill="none" xmlns="http://www.w3.org/2000/svg">
<path d="M45.5 379.1C48.8 379 54 379.7 57 380.5C60 381.4 64.3 383.1 66.5 384.4C68.7 385.7 72.4003 388.9 74.7002 391.4C77.1 393.9 79.6995 397.7 80.5996 399.8C81.4996 401.8 82.7996 405.8 83.5996 408.5C84.2996 411.3 85 416.4 85 420C85 423.6 84.3996 428.8 83.5996 431.5C82.8996 434.3 81.0004 438.9 79.4004 441.9C77.8004 444.8 74.7 448.9 72.5 450.8C70.3 452.8 65.6 455.7 62 457.4C56.3001 460 54.3999 460.4 47 460.3C41.6 460.3 36.9 459.7 34 458.6C31.5 457.7 27.9999 455.8 23 452V468C23 481.299 22.7002 484.3 21.4004 485.5C20.3004 486.6 17.6001 487 11.9004 487C7.50039 487 3.1 486.6 2 486C0 485 0 484 0 434.3C1.30787e-06 406.301 0.300212 382.901 0.700195 382.2C1.3002 381.3 4.2 381.1 20.5 381.5L21 389L25.0996 385.8C27.3996 384 31.6004 381.7 34.4004 380.8C37.2005 379.8 42.2002 379.1 45.5 379.1ZM225.5 379.1C228.8 379 234 379.7 237 380.5C240 381.4 244.3 383.1 246.5 384.4C248.7 385.8 252.1 388.6 254.2 390.7C256.2 392.8 259.1 397 260.5 400C262 403 263.7 408.2 264.2 411.5C264.7 414.8 264.9 420.7 264.5 424.5C264.1 429.4 262.9 433.6 260.6 438.5C258.4 443.167 255.566 447.1 252.1 450.3C249.3 452.9 244.4 456.2 241.2 457.7C236.2 460.1 234.2 460.5 226 460.5C217.1 460.5 216 460.3 209.5 457C205.6 455.1 202.101 453.4 201.7 453.3C201.3 453.1 200.9 460.3 200.5 485.5H179.5V381.5L188.5 381.3C194.6 381.1 197.9 381.4 198.8 382.3C199.5 382.9 200.1 384.7 200 389L204.6 385.8C207.2 384 211.6 381.7 214.4 380.8C217.2 379.8 222.2 379.1 225.5 379.1ZM429.5 379.1C432.8 379.1 438.2 379.7 441.5 380.4C444.8 381.1 449.7 382.8 452.5 384.1C455.2 385.4 459.8 388.8 462.8 391.5C466.3 394.7 469.3 398.8 471.3 403C474.2 409 474.5 410.3 474.5 420C474.5 429.8 474.3 431 471.3 437C469.4 441 466.2 445.4 463.1 448.3C460.3 450.9 455.2 454.4 451.7 456C448.3 457.6 442.8 459.5 439.5 460.1C436.1 460.7 430.2 461 426 460.6C420.3 460.2 416.8 459.2 411.5 456.6C406.6 454.2 402.9 451.5 399.2 447.4C396 443.9 393 439.3 391.7 436C390.1 431.7 389.6 428.2 389.6 420C389.5 411.6 390 408.4 391.7 404C392.9 401 396.1 396 398.8 393C401.5 390 406.1 386.2 409.1 384.6C412.1 383 416.5 381.1 419 380.4C421.5 379.7 426.2 379.2 429.5 379.1ZM117 380.4C119.7 379.6 125.7 379.2 132 379.3C140.3 379.5 143.5 380.1 147.5 381.9C150.2 383.1 154 385.6 155.8 387.3C157.7 389.1 160.2 392.3 161.5 394.5C162.8 396.7 164.4 401.7 165 405.5C165.6 409.4 166.2 422.6 166.5 457.5H145.5L145 452L139.7 455.6C136.8 457.5 132.9 459.4 131 459.8C129.1 460.2 123.9 460.5 119.5 460.5C113.7 460.4 110.2 459.8 107 458.4C104.5 457.2 101 454.8 99.2002 452.9C97.4002 451 95.3 447.5 94.5 445C93.6 442.5 93 438.5 93 436C93 433.5 93.8996 429.5 95.0996 427C96.1996 424.5 98.0998 421.5 99.2998 420.2C100.5 418.9 103.5 416.8 106 415.5C108.5 414.3 113.7 412.7 117.7 412.1C121.7 411.5 129 411 134 411C142.3 411 143 410.9 143 409C143 407.9 142.3 405.7 141.5 404C140.7 402.4 139 400.5 137.7 399.8C136.5 399.2 133.7 398.3 131.5 397.9C129.3 397.5 125 397.6 122 398.1C119 398.6 113.3 400.5 109.5 402.5C105.6 404.4 101.901 406 101.2 406C100.5 406 99.8 405.3 99.5 404.5C99.2 403.7 99 400.1 99 396.5C99 391 99.3002 389.7 101.2 388C102.5 386.8 105.5 385 108 383.8C110.5 382.6 114.5 381.1 117 380.4ZM512 379.1C515.6 379.1 521 379.6 524 380.3C527 381 531.5 382.7 538.5 386.5V393.9C538.5 399.6 538.1 401.5 536.8 402.4C535.5 403.3 533.699 402.7 527.8 399.8C521.6 396.6 519.5 396 514 396C508.6 396.1 507.1 396.4 505.2 398.3C504 399.5 502.9 401.5 503 402.8C503 404 503.7 405.7 504.5 406.5C505.3 407.3 507.9 408.5 510.2 409.1C512.6 409.7 517.2 411 520.5 412C523.8 412.9 528.3 414.7 530.5 415.8C532.7 416.9 535.7 419.1 537.2 420.7C538.7 422.2 540.6 425.2 541.4 427.3C542.3 429.3 543 433.1 543 435.8C543 439 542.1 442.3 540.2 445.9C538.7 448.9 536.1 452.399 534.5 453.6C532.8 454.9 529.2 456.9 526.5 458.2C522.3 460.1 519.8 460.4 510.5 460.5C501.5 460.5 498.3 460.1 493 458.2C489.4 456.9 485.7 455.3 484.8 454.7C483.4 453.8 483 451.8 483 445.5C482.9 440.1 483.3 437.1 484.2 436.2C485.3 435.1 486.6 435.4 491.7 437.9C495.2 439.6 501.2 441.7 505.2 442.6C509.2 443.5 513.9 444 515.7 443.6C517.5 443.3 519.9 442.1 521 441C522.1 439.9 523 438 523 436.8C523 435.5 522.2 433.8 521.3 432.8C520.299 431.9 515.2 429.9 510 428.5C504.8 427 497.7 424.5 494.2 422.9C489.1 420.5 487.5 419.2 485.2 415.3C483 411.3 482.5 409.4 482.6 404C482.6 399.6 483.3 396.2 484.7 393.5C485.8 391.3 488.7 387.8 491.1 385.7C493.5 383.6 497.3 381.5 499.5 380.9C501.7 380.4 503.9 379.7 504.5 379.5C505 379.3 508.4 379.1 512 379.1ZM313.5 354.2C313.9 353.3 316.6 353 334.5 353.5L334.7 382.3C334.9 398.1 335.3 411 335.7 411C336.1 410.9 336.9 410.3 337.5 409.6C338.001 408.898 343.802 402.097 362 381H374.5C386.2 381 387 381.1 386.7 382.9C386.599 384.002 380.498 391.202 360 413L367.8 425.3C372.1 432 378.4 441.9 381.8 447.3C385.2 452.6 387.8 457.5 387.5 458C387.2 458.6 382 459 363 459L353.9 444.3C348.8 436.1 344.5 429.3 344.3 429C344.099 428.7 341.899 430.501 335 437.5L334.5 458.5H313.5L313.2 407C313.1 378.702 313.2 354.904 313.5 354.2ZM277.6 382.2C277.9 381.3 280.6 381 298.5 381.5V458.5H277.5L277.3 421C277.3 400.403 277.4 382.904 277.6 382.2ZM144 425C125.6 425 121.6 425.5 119.5 426.6C117.9 427.4 116 428.9 115.3 429.8C114.6 430.8 114 432.9 114 434.5C113.9 436.2 114.8 438.8 115.9 440.3C117.2 442 119.5 443.4 122 444C124.7 444.7 127.5 444.7 130.7 444C133.3 443.4 136.5 442.3 137.7 441.5C138.9 440.7 140.9 438.6 142 436.8C143.1 434.9 144 431.8 144 429.3V425ZM221.5 398.1C218.7 398.1 215.3 398.6 214 399.2C212.6 399.7 209.9 401.4 208 402.9C206.1 404.3 203.5 407.8 202.3 410.5C201 413.3 200 417.3 200 419.5C200 421.7 200.4 425.2 201 427.3C201.5 429.4 203.2 432.5 204.7 434.2C206.2 436 209.7 438.4 212.5 439.7C215.2 441 219.3 442 221.5 442C223.7 442 227.3 441.2 229.5 440.2C231.7 439.2 234.9 436.7 236.7 434.7C238.5 432.7 240.4 429.4 241 427.3C241.5 425.2 242 421.7 242 419.5C242 417.3 241.5 414 240.8 412C240.2 410.1 238.5 407 237.1 405.1C235.6 403.2 232.7 400.9 230.5 399.9C228.3 398.9 224.2 398.1 221.5 398.1ZM41.9004 398.1C39.1004 398 35.7004 398.9 32.9004 400.4C30.5004 401.7 27.1996 404.5 25.5996 406.6C23.2996 409.8 22.7002 411.9 22.2002 418C21.8002 424.1 22.0997 426.4 23.5996 430C24.6996 432.5 27.1 435.7 29 437.2C30.9 438.7 34.5 440.4 37 440.9C39.4 441.5 43.3 441.6 45.5 441.1C47.7 440.7 50.4 439.9 51.5 439.3C52.6 438.7 54.7002 436.9 56.2002 435.4C57.6002 433.8 59.6004 430.9 60.4004 428.8C61.3003 426.7 62 422.9 62 420.3C62 417.7 61.5 413.9 61 411.8C60.4 409.7 58.7001 406.6 57.2002 404.9C55.7002 403.1 52.7 400.9 50.5 399.9C48.3001 398.9 44.4004 398.1 41.9004 398.1ZM431.7 399.1C428.8 399.1 424.9 399.7 423 400.4C421.1 401.2 418.3 403.4 416.7 405.4C415.2 407.4 413.5 410.7 413 412.8C412.4 414.9 412 418.1 412 420C412 422 412.4 425.2 413 427.3C413.5 429.4 415.2 432.5 416.7 434.2C418.2 436 421.3 438.2 423.5 439.2C425.7 440.2 429.4 441 431.7 441C434 441 437.6 440.3 439.7 439.5C441.8 438.6 444.5 436.9 445.8 435.7C447.2 434.5 449.1 431.7 450.1 429.5C451.1 427.3 451.9 423.2 451.9 420.3C452 417.4 451.3 413.4 450.4 411.3C449.5 409.2 447.9 406.5 446.7 405.2C445.4 403.9 442.8 402 440.7 400.9C438.4 399.8 435 399.1 431.7 399.1ZM282.4 350.4C284.1 349.6 287.1 349.1 289 349.3C290.9 349.5 293.9 350.6 295.7 351.8C298 353.3 299.3 355.2 300 358C300.7 361 300.6 362.8 299.7 365.3C298.9 367 297 369.5 295.4 370.8C293.4 372.4 291.2 373.1 288.2 373C285.9 373 282.7 372.3 281.2 371.5C279.7 370.6 277.7 368.6 276.7 367C275.8 365.3 275 362.8 275 361.3C275 359.7 276 357 277.2 355.2C278.4 353.4 280.7 351.2 282.4 350.4ZM209.2 55C309.9 55 317.1 55.1004 327 56.9004C332.8 57.9004 341.8 60.2 347 62C352.2 63.7 359.9 67.0002 364 69.2002C368.1 71.4002 373.8 74.7 376.5 76.5C379.3 78.4 384.6 82.5002 388.5 85.7002C392.4 88.9002 398.4 95.2002 402 99.7002C405.6 104.1 410.6 111.7 413.2 116.6C415.8 121.5 419.2 129.5 420.8 134.5C422.4 139.5 424.5 148.9 425.5 155.5C426.8 164.1 427.1 170.4 426.6 178C426.3 183.8 425.3 192.1 424.5 196.5C423.6 200.9 421.8 207.8 420.5 211.8C419.1 215.7 416.6 221.8 414.9 225.3C413.2 228.7 409.7 234.7 407.2 238.5C404.7 242.3 398.6 249.7 393.6 254.9C388.6 260 380.9 266.6 376.5 269.5C372.1 272.4 365.4 276.3 361.5 278.3C357.6 280.2 351.1 282.9 347 284.3C342.9 285.7 337.8 287.1 332 288V298.3C332.1 305.4 331.7 308.9 330.8 309.8C330 310.5 327.4 310.9 318.5 310.5L318 290H288V299.3C288 304.299 287.6 309.099 287.2 309.8C286.7 310.6 284.5 311 273.5 310.5L273 290H161L160.5 310.5L155 310.8C151.6 310.9 149 310.5 148.2 309.8C147.2 308.8 146.9 297.4 147 254.5C147 214.6 147.4 199.5 148.3 196.6C148.9 194.5 150.8 191.2 152.5 189.2C154.2 187.3 157.2 184.9 159.3 183.9C162.6 182.2 165.6 182 186.5 182C203.899 182 210.8 182.3 213.3 183.3C215 184.1 218.2 186.6 220.3 188.8C222.3 191.1 224.4 194.7 225 196.7C225.5 198.8 226 206.501 226 227L230.3 227.5C232.6 227.7 248 228.8 264.5 230C281 231.1 298.3 232.3 303 232.6C307.7 232.9 313.1 233.6 315 234.1C316.9 234.5 320.5 236.4 322.9 238.2C325.7 240.4 328 243.3 332 252L337.2 250.1C340.1 249.1 344.9 247.1 353 243V199H344.7C338.5 199.1 336.2 198.7 335.2 197.5C334.5 196.6 334.3 194.9 334.6 193.2C335 191.7 336.8 185.1 338.7 178.5C340.6 171.9 342.8 165.4 343.5 164C344.1 162.6 345.5 161.2 346.4 160.7C347.301 160.3 352.1 160 357 160C361.9 160 367.1 160.4 368.5 161C370.2 161.7 371.5 163.4 372.4 166.2C373.2 168.601 375.6 176.5 377.9 183.7C380.2 191 381.8 197.4 381.5 198C381.2 198.6 376.8 199 362 199V237L365.2 234.7C367 233.5 370.8 229.6 373.8 226C376.7 222.4 381.1 215.4 383.5 210.5C385.9 205.6 388.6 198.1 389.6 194C390.9 188.6 391.5 182.7 391.5 173C391.5 163.2 391 157.5 389.6 152C388.6 147.9 385.8 140.4 383.5 135.5C381.1 130.5 376.7 123.5 373.8 119.9C370.9 116.3 365.8 111 362.5 108.1C359.2 105.2 353.8 101.3 350.5 99.5C347.2 97.6 341.6 95.0002 338 93.7002C334.4 92.3002 327.4 90.4004 322.5 89.4004C314.2 87.7004 307.3 87.6004 228.5 87.9004C162.6 88.1004 142.8 88.5 140.5 89.5C138.8 90.2 136.5 91.7996 135.3 93.0996C134.1 94.3996 132.7 96.7002 132.1 98.2002C131.3 100.104 131 136.91 131 331L128.3 333C125.9 334.8 124 335.1 114 335.1C103.1 335.1 102.4 334.9 97 330L97.0996 59.9004L101.9 55H209.2ZM171.4 241C165.3 241 159.9 241.3 159.5 241.7C159 242.101 158.7 247.501 158.8 253.7C158.9 261.6 159.3 265.2 160.2 265.7C160.901 266.1 167.8 266.7 175.6 267L189.8 267.5C190.4 250.501 190.9 244.9 191.3 244C191.9 242.9 191 242.4 187.2 241.8C184.6 241.4 177.5 241 171.4 241ZM220 241.5C214.8 241.1 211.4 241.4 209.1 242.4C207.2 243.101 204.6 245.201 203.3 246.9C201.3 249.6 201 251.2 201 258.5V267H273V242C237.7 242 224.1 241.8 220 241.5ZM202.5 208.9C201.4 208.7 195.1 208.6 188.5 208.8C181.9 208.9 175.401 209.3 174.2 209.5C172.8 209.9 171.4 211.4 170.4 213.8C169.5 215.9 169 218.8 169.3 220.5C169.6 222.2 170.8 224.8 171.9 226.3L174 229H214C214.9 224.8 214.9 222 214.6 220C214.2 218.1 212.7 215.3 211.2 213.7C209.7 212.1 207.6 210.5 206.5 210.1C205.4 209.7 203.6 209.1 202.5 208.9ZM283.7 113C313.2 113 321.6 113.3 323.7 114.4C325.2 115.1 326.8 116.5 327.2 117.4C327.6 118.305 328 136.103 328 157C328 180.3 327.6 195.8 327 197C326.4 198.1 324.6 199.7 323 200.5C320.5 201.8 314 202 284 202C254 202 247.5 201.8 245 200.5C243.3 199.7 241.5 198.1 241 197C240.4 195.8 240 180.2 240 156.8C240 127.401 240.2 118.101 241.2 116.9C241.9 116 243.4 114.8 244.5 114.2C245.8 113.4 258.7 113.1 283.7 113ZM253 177.5L252.9 190.1L277.4 189.6V165.6L253 165V177.5ZM290 165V190H315V165H290ZM289.9 126.1V152.1H314.9V126.1H289.9ZM253 139V152H278L277.5 126.5L253.1 125.9L253 139Z" fill="#1A579F"/>
</svg>
